<svg xmlns="http://www.w3.org/2000/svg" viewBox="0 0 560 128" role="img" aria-label="Mayhempedia logo">
  <g transform="translate(18 18)">
    <rect x="5" y="18" width="36" height="66" rx="8" fill="#22D3EE" transform="rotate(-5 23 51)"/>
    <rect x="59" y="18" width="36" height="66" rx="8" fill="#17283A" transform="rotate(5 77 51)"/>
    <path d="M35 8h30c6.6 0 12 5.4 12 12v61c0 6.6-5.4 12-12 12H35c-6.6 0-12-5.4-12-12V20c0-6.6 5.4-12 12-12Z" fill="#F4F1E8"/>
    <path d="M23 20c0-6.6 5.4-12 12-12h30c6.6 0 12 5.4 12 12v16L50 62 23 36V20Z" fill="#F4F1E8"/>
    <path d="M19 35h17l14 14 14-14h17v37H65V53L50 68 35 53v19H19V35Z" fill="#06101C"/>
  </g>
  <text x="140" y="78" fill="#F4F1E8" font-family="Inter, Avenir Next, Segoe UI, Arial, sans-serif" font-size="48" font-weight="800" letter-spacing="-0.8">
    Mayhem<tspan fill="#22D3EE">pedia</tspan>
  </text>
</svg>
