<svg xmlns="http://www.w3.org/2000/svg" viewBox="0 0 128 128" role="img" aria-label="Mayhempedia icon">
  <rect width="128" height="128" rx="28" fill="#080D14"/>
  <g transform="translate(15 20)">
    <rect x="6" y="17" width="36" height="66" rx="8" fill="#22D3EE" transform="rotate(-5 24 50)"/>
    <rect x="58" y="17" width="36" height="66" rx="8" fill="#17283A" transform="rotate(5 76 50)"/>
    <path d="M34 7h30c6.6 0 12 5.4 12 12v61c0 6.6-5.4 12-12 12H34c-6.6 0-12-5.4-12-12V19c0-6.6 5.4-12 12-12Z" fill="#F4F1E8"/>
    <path d="M22 19c0-6.6 5.4-12 12-12h30c6.6 0 12 5.4 12 12v16L49 61 22 35V19Z" fill="#F4F1E8"/>
    <path d="M18 34h17l14 14 14-14h17v37H64V52L49 67 34 52v19H18V34Z" fill="#06101C"/>
  </g>
</svg>
